inDegrees=yes
name=ik_S41_A07_T01
DataType=double
version=3
OpenSimVersion=4.3-2021-08-27-4bc7ad9
endheader
time	pelvis_tilt	pelvis_list	pelvis_rotation	pelvis_tx	pelvis_ty	pelvis_tz	hip_flexion_r	hip_adduction_r	hip_rotation_r	knee_angle_r	knee_angle_r_beta	ankle_angle_r	subtalar_angle_r	mtp_angle_r	hip_flexion_l	hip_adduction_l	hip_rotation_l	knee_angle_l	knee_angle_l_beta	ankle_angle_l	subtalar_angle_l	mtp_angle_l	lumbar_extension	lumbar_bending	lumbar_rotation	arm_flex_r	arm_add_r	arm_rot_r	elbow_flex_r	pro_sup_r	wrist_flex_r	wrist_dev_r	arm_flex_l	arm_add_l	arm_rot_l	elbow_flex_l	pro_sup_l	wrist_flex_l	wrist_dev_l
6.359999999999952	-7.400909337877742	-5.927619800987512	21.4189632421869	0	0.9399999999999999	0	28.69793169748243	-9.183979353565878	-8.225915226582924	34.76733989244804	0.6068045532831894	0	0	0	28.69793169748243	-9.183979353565878	-8.225915226582924	34.76733989244804	0.6068045532831894	0	0	0	-7.2788689641938	-5.498220089212384	8.258914564028872	70.40586056286904	-24.29774290959926	-28.32306189779752	32.71471055035765	77.56351523835333	0	0	33.38871736000095	2.618477475226495	13.14589957399702	17.89054429533952	103.8342054601643	0	0
6.379999999999952	-7.375283842106807	-5.938499657812511	21.67309807296814	0	0.9399999999999999	0	28.70751007078508	-9.185574355908242	-8.22814259399558	34.77573943907979	0.6069511530275883	0	0	0	28.70751007078508	-9.185574355908242	-8.22814259399558	34.77573943907979	0.6069511530275883	0	0	0	-7.277139404754418	-5.468656135339602	8.002076055044652	72.04446753709139	-23.78688620391753	-26.6318001581089	35.16208620579857	79.2870120149596	0	0	33.35343360055868	2.63741180110568	13.28686090856731	17.87615815669898	103.7775604167904	0	0
6.399999999999952	-7.346125386743024	-5.953046890017696	22.10895700793201	0	0.9399999999999999	0	28.88518435650309	-9.206378331510674	-8.261629623259699	34.97499151957091	0.6104287578736071	0	0	0	28.88518435650309	-9.206378331510674	-8.261629623259699	34.97499151957091	0.6104287578736071	0	0	0	-7.306786654621723	-5.410125083985482	7.570053334756831	74.71805634481279	-22.68543647791021	-23.32779361269885	36.34938998158828	80.43837365031604	0	0	33.34221144477142	2.614512506515094	13.37830819064451	17.8802864603414	103.7311074088433	0	0
6.419999999999951	-7.336288592094432	-5.947885771427735	22.10496131606269	0	0.9399999999999999	0	28.88574070252393	-9.206760000483198	-8.261964486310925	34.97529979118372	0.6104341382282411	0	0	0	28.88574070252393	-9.206760000483198	-8.261964486310925	34.97529979118372	0.6104341382282411	0	0	0	-7.295093750428704	-5.410095877660996	7.575225184626306	74.71578206602953	-22.67243002662619	-23.3215614638068	36.32782280974282	80.43617413166865	0	-5.38806921148701e-36	33.32947568278805	2.627555572469994	13.42245628948405	17.84591686359327	103.7447048131975	0	-5.38806921148701e-36
6.439999999999951	-7.330183882073613	-5.944065512465841	22.49111230684365	0	0.9399999999999999	0	29.01303314881375	-9.221810685741508	-8.286090332607992	35.11663303272906	0.6129008686357238	0	0	0	29.01303314881375	-9.221810685741508	-8.286090332607992	35.11663303272906	0.6129008686357238	0	0	0	-7.32313719449276	-5.343816922819617	7.243533855515548	76.72689628221381	-21.43471969027715	-19.2362366824875	34.53140945438355	78.4945606053589	0	0	33.34905920986422	2.663335233318907	13.49086879440904	17.80467005327368	103.703741027598	0	0
6.45999999999995	-7.318604589025842	-5.926628859906088	22.51412392780344	0	0.9399999999999999	0	29.02307145187563	-9.223050768381876	-8.288090205237857	35.12575979775503	0.6130601607354828	0	0	0	29.02307145187563	-9.223050768381876	-8.288090205237857	35.12575979775503	0.6130601607354828	0	0	0	-7.305511793847208	-5.33279112040214	7.2505906241001	76.70074235633858	-21.45488772966399	-19.23050393287724	34.52536577592961	78.49568644856855	0	0	33.33268198585074	2.683649382244359	13.50511134649608	17.7895287821707	103.7036856345535	0	0
6.47999999999995	-7.301698075815234	-5.932510818040405	23.5508136924031	0	0.9399999999999999	0	29.31570973000351	-9.256082011865018	-8.342163314990092	35.45641680937305	0.6188312142830225	0	0	0	29.31570973000351	-9.256082011865018	-8.342163314990092	35.45641680937305	0.6188312142830225	0	0	0	-7.40207064919818	-5.147666873527923	6.287812539429208	78.05809149743068	-18.01766677589289	-14.00557931769239	41.57238372950109	81.9899076912626	0	0	33.35338852589997	2.737778783701045	13.52915164431364	17.75796164684061	103.6992296718761	0	0
6.499999999999949	-7.289305617776351	-5.92440878993945	24.00015124064645	0	0.9399999999999999	0	29.45473689456505	-9.271352442310693	-8.367462948539757	35.61439486323224	0.6215884514687582	0	0	0	29.45473689456505	-9.271352442310693	-8.367462948539757	35.61439486323224	0.6215884514687582	0	0	0	-7.430892563736029	-5.067594043556764	5.918911071170266	78.36652456156641	-16.33871009923104	-11.54871258791558	43.98121031059335	82.7945542828715	0	0	33.37267629895754	2.772592478144746	13.55175551215943	17.78109304933118	103.6832800844426	0	0
6.519999999999949	-7.268367316523898	-5.925395094866786	24.30483245702171	0	0.9399999999999999	0	29.57185055158036	-9.284059872329252	-8.388634654535446	35.74760651572224	0.6239134334067312	0	0	0	29.57185055158036	-9.284059872329252	-8.388634654535446	35.74760651572224	0.6239134334067312	0	0	0	-7.443119222818982	-5.021081691268169	5.657603070160635	78.50716785612141	-14.91444640162893	-9.584621364766035	45.10761129580018	83.28474723975425	0	0	33.33797830918903	2.775924898459267	13.58619684774232	17.80909368427138	103.6401606074664	0	0
6.539999999999949	-7.271233079717862	-5.906664289600099	24.58605219462654	0	0.9399999999999999	0	29.57691382671019	-9.284846304139617	-8.389770914065911	35.75204602969928	0.6239909175428189	0	0	0	29.57691382671019	-9.284846304139617	-8.389770914065911	35.75204602969928	0.6239909175428189	0	0	0	-7.458099506551036	-4.967516131960076	5.459535529785774	78.54099681548345	-13.55193587350322	-7.909486152506103	45.89613448678781	84.06330705916673	0	0	33.42958007228453	2.828905424347825	13.61433028427185	17.69155972086351	103.6044808484563	0	0
6.559999999999948	-7.269375316557829	-5.909309259884406	24.86960504584823	0	0.9399999999999999	0	29.58294528813823	-9.285783236061356	-8.391124737042821	35.75733037485166	0.6240831467645397	0	0	0	29.58294528813823	-9.285783236061356	-8.391124737042821	35.75733037485166	0.6240831467645397	0	0	0	-7.477510062451474	-4.936009850236831	5.262863031726638	78.4560863938744	-12.07854220158568	-6.446743409327564	46.50996489422777	85.14185346779915	0	0	33.47070212628	2.852784244358809	13.68746751721905	17.65925966648866	103.5793795113892	0	0
